#!OML:ASF E:/inclinewalkrobotboard/Project1/Captureday1/Session1/subject1.ASF
:FULLY-SPECIFIED
:DEGREES
151
root 0 0 0 76.31533581078145 -27.412500418894034 -45.45757416392019
lowerback -11.188076451319873 7.863125024494387 9.56759288507957
upperback -20.515629689423847 10.074287472618 2.958440415612788
thorax -15.454897780033004 3.9700554051182575 -1.7125398183045926
lowerneck -7.545671175853164 9.772026109431312 5.4114026586858754
upperneck 11.710155772047843 11.680477760186008 7.288077663635445
head 4.805107253294514 6.267351684178153 2.0770653023981662
rclavicle 6.070634175481461E-15 -3.4191272868716795E-15
rhumerus 108.71111353981148 -24.9364755711859 -115.1236927170444
rradius 0.8165142898385156
rwrist 69.6318912370489
rhand 13.734764535124217 -12.60351061649799
rfingers 7.125020000000017
rthumb 38.730704314670014 -38.49494590061869
lclavicle -6.826913998628211E-16 1.501413613286503E-15
lhumerus -0.11770349299904126 24.995784910280456 1.731723828445844
lradius 9.273293792825193
lwrist -41.468127810316666
lhand 12.088713519672103 36.72906616809118
lfingers 7.125020000000047
lthumb 37.196611639179395 63.82338788174468
rfemur 183.09018784573388 -219.73479585495465 -192.0612537843548
rtibia 67.37482038744832
rfoot -22.834395734834082 -9.937712761884907
rtoes 49.87644897464584
lfemur -109.45609337333806 35.76334320881293 -24.146515613680407
ltibia 68.10995546787355
lfoot -38.325573338326606 35.574900759623134
ltoes 38.92583035650482
152
root 0 0 0 76.32006091495718 -27.38833311841873 -45.465307933893335
lowerback -11.188850549599533 7.862828571878058 9.572453031524093
upperback -20.51923961299344 10.074103741442604 2.9618317629439597
thorax -15.45786581016062 3.969657142062329 -1.7115887299117354
lowerneck -7.53959567194083 9.771582788484755 5.410403655307324
upperneck 11.711330442226123 11.680390383919667 7.287852064467001
head 4.804752233989589 6.267095771808591 2.0768089286018405
rclavicle 6.141119072748775E-15 -3.3440784189107535E-15
rhumerus 108.77406779182319 -24.93498585049446 -115.09410300259349
rradius 0.8760773395786039
rwrist 69.5755253601643
rhand 13.708446587279827 -12.583482523798478
rfingers 7.125020000000017
rthumb 38.70493656750536 -38.477683996367205
lclavicle -5.720267556136993E-16 1.5822206838323308E-15
lhumerus -0.43684804546800216 24.83137164520555 1.7174884124086844
lradius 9.35269789787241
lwrist -41.459558724459605
lhand 12.121656666804851 36.762809894964114
lfingers 7.125020000000047
lthumb 37.22770597664435 63.848015841329186
rfemur 183.10239112156606 -219.7797794661994 -192.08286701118476
rtibia 67.3324666827392
rfoot -23.048806130485083 -9.808478251236702
rtoes 49.80824366332941
lfemur -109.46347087254475 35.77350719193453 -24.135959780591882
ltibia 67.97423984398992
lfoot -38.28856195059633 35.60837161588968
ltoes 38.966970445900124
153
root 0 0 0 76.31772090826892 -27.400856934853394 -45.46134180150275
lowerback -11.18854305774965 7.862993063923836 9.570002764295799
upperback -20.517666642406738 10.074188277038797 2.9602752155553613
thorax -15.456642868629189 3.9698580052626395 -1.7118503472968793
lowerneck -7.54240280574105 9.772150315312796 5.410953466250347
upperneck 11.709662862286223 11.680971852231522 7.288243923208398
head 4.804472484432729 6.267475914436654 2.077039787655161
rclavicle 6.088717103049529E-15 -3.421638030533305E-15
rhumerus 108.7767710570339 -24.945150137495233 -115.12725830638824
rradius 0.8560340245928728
rwrist 69.590295771542
rhand 13.704396435336147 -12.584445619598375
rfingers 7.125020000000017
rthumb 38.701496230686374 -38.4803930273398
lclavicle -6.25945273265448E-16 1.5074116824581616E-15
lhumerus -0.25397369616757537 24.876009949624976 1.6864954248124562
lradius 9.330476371925954
lwrist -41.45025359940132
lhand 12.122142420524206 36.7576780560111
lfingers 7.125020000000047
lthumb 37.22821211737153 63.84370025586781
rfemur 183.11153843571037 -219.76717995446893 -192.08240632998516
rtibia 67.35700845860707
rfoot -22.93444632306871 -9.859945784332696
rtoes 49.84222870890028
lfemur -109.45803057329832 35.770578529620884 -24.129965701216747
ltibia 68.01753464548885
lfoot -38.30705128099241 35.592071619326475
ltoes 38.95693519978605
154
root 0 0 0 76.3170847939827 -27.403694729147393 -45.460354199274605
lowerback -11.188352094038216 7.8630657305645 9.569353311502704
upperback -20.517285281636536 10.074244551669109 2.959884695388241
thorax -15.456421822185533 3.9699282919404473 -1.7118925351888201
lowerneck -7.543115229432602 9.772314675616036 5.411048869728546
upperneck 11.708885545032349 11.681175657777075 7.288403738921628
head 4.804264676186489 6.267593510765873 2.077120046788348
rclavicle 6.082604359987477E-15 -3.4240974157392662E-15
rhumerus 108.74502397486953 -24.94435069428415 -115.13485632528818
rradius 0.8358143198780539
rwrist 69.60791846613901
rhand 13.712881791806588 -12.58974129186088
rfingers 7.125020000000017
rthumb 38.70975731538391 -38.48462218705322
lclavicle -6.516644847885498E-16 1.4998467490095056E-15
lhumerus -0.16960116970654404 24.91679206813488 1.6863348871938442
lradius 9.311917483901905
lwrist -41.45313671829119
lhand 12.116567088613289 36.749371281503244
lfingers 7.125020000000047
lthumb 37.222978645977804 63.83732356107657
rfemur 183.1020392916938 -219.75056173079025 -192.07256017495652
rtibia 67.36647622762275
rfoot -22.877714349652514 -9.901233485662686
rtoes 49.86110906514751
lfemur -109.45512656983088 35.76906477548039 -24.133710969585977
ltibia 68.0528248677064
lfoot -38.31328286436199 35.583284281151506
ltoes 38.94567478822953
